Coordinates
version=1
nRows=6
nColumns=63
inDegrees=yes

Units are S.I. units (second, meters, Newtons, ...)
If the header above contains a line with 'inDegrees', this indicates whether rotational values are in degrees (yes) or radians (no).

endheader
time	pelvis_tilt	pelvis_list	pelvis_rotation	pelvis_tx	pelvis_ty	pelvis_tz	hip_flexion_r	hip_adduction_r	hip_rotation_r	knee_angle_r	knee_angle_r_beta	ankle_angle_r	subtalar_angle_r	mtp_angle_r	hip_flexion_l	hip_adduction_l	hip_rotation_l	knee_angle_l	knee_angle_l_beta	ankle_angle_l	subtalar_angle_l	mtp_angle_l	L5_S1_Flex_Ext	L5_S1_Lat_Bending	L5_S1_axial_rotation	L4_L5_Flex_Ext	L4_L5_Lat_Bending	L4_L5_axial_rotation	L3_L4_Flex_Ext	L3_L4_Lat_Bending	L3_L4_axial_rotation	L2_L3_Flex_Ext	L2_L3_Lat_Bending	L2_L3_axial_rotation	L1_L2_Flex_Ext	L1_L2_Lat_Bending	L1_L2_axial_rotation	L1_T12_Flex_Ext	L1_T12_Lat_Bending	L1_T12_axial_rotation	Abs_r3	Abs_r2	Abs_r1	Abs_t1	Abs_t2	neck_flexion	neck_bending	neck_rotation	arm_flex_r	arm_add_r	arm_rot_r	elbow_flex_r	pro_sup_r	wrist_flex_r	wrist_dev_r	arm_flex_l	arm_add_l	arm_rot_l	elbow_flex_l	pro_sup_l	wrist_flex_l	wrist_dev_l
      7.73333333	     -1.33778452	     -0.39362652	    -27.02980980	     -1.74696506	      0.85568782	      0.30070918	    -10.13312259	     -2.11765676	     18.18453228	      7.53120078	      0.13144425	     11.04593343	    -12.71219660	      0.00000000	     24.85990415	    -14.69535834	    -20.31253367	     27.32399449	      0.47689367	      2.36407304	    -18.88882475	      0.00000000	     -0.03604324	     -0.24753159	      5.13292741	     -0.06693590	     -0.32921701	      5.45373537	     -0.05921544	     -0.60184831	      5.45373537	     -0.04119382	     -0.60184831	      4.49131148	     -0.03346975	     -0.50476642	      4.17050352	     -0.02059511	     -0.38342643	      3.84969556	     -0.25745325	     -2.80012685	     28.54780238	      0.00000000	      0.00000000	      0.00000000	      0.00000000	      0.00000000	     -6.83716904	     -5.89710146	     11.05966531	     25.69402964	     29.03140091	      0.00000000	      5.00000014	    -11.97982569	      8.44914002	    -54.05527961	     43.98927987	     30.07206668	      0.00000000	      5.00000014
      7.76666667	     -1.32983145	     -0.36434410	    -27.01890520	     -1.74695531	      0.85569428	      0.30071262	    -10.12627465	     -2.19307905	     17.50820031	      7.51050592	      0.13108306	     11.36379582	    -11.67731586	      0.00000000	     24.85164416	    -14.65740712	    -20.33083640	     27.29404203	      0.47637090	      2.34033125	    -18.89083755	      0.00000000	     -0.03591254	     -0.25123818	      5.13227973	     -0.06669319	     -0.33414678	      5.45304722	     -0.05900072	     -0.61086052	      5.45304722	     -0.04104445	     -0.61086052	      4.49074477	     -0.03334839	     -0.51232490	      4.16997728	     -0.02052043	     -0.38916795	      3.84920980	     -0.25651971	     -2.84205658	     28.54420020	      0.00000000	      0.00000000	      0.00000000	      0.00000000	      0.00000000	     -6.83815986	     -5.86178010	     10.88233154	     25.64731199	     29.42039696	      0.00000000	      5.00000014	    -11.97133475	      8.42239810	    -54.05328763	     43.94787868	     30.44759620	      0.00000000	      5.00000014
      7.80000000	     -1.32822044	     -0.37716013	    -27.09533924	     -1.74700906	      0.85570038	      0.30079016	    -10.11634956	     -2.14547521	     18.17255855	      7.54967589	      0.13176670	     11.08495811	    -12.63419636	      0.00000000	     24.82433637	    -14.71068755	    -20.44198948	     27.30721677	      0.47660084	      2.36788710	    -18.87457834	      0.00000000	     -0.03649375	     -0.24980047	      5.14543267	     -0.06777254	     -0.33223463	      5.46702221	     -0.05995558	     -0.60736487	      5.46702221	     -0.04170870	     -0.60736487	      4.50225358	     -0.03388809	     -0.50939312	      4.18066404	     -0.02085253	     -0.38694093	      3.85907450	     -0.26067119	     -2.82579291	     28.61735287	      0.00000000	      0.00000000	      0.00000000	      0.00000000	      0.00000000	     -6.84262914	     -5.88464427	     10.92076398	     25.70088306	     29.56926654	      0.00000000	      5.00000014	    -11.95419946	      8.45182127	    -54.17017808	     43.97251824	     30.61393902	      0.00000000	      5.00000014
      7.83333333	     -1.34442464	     -0.39216815	    -26.97261064	     -1.74694402	      0.85567327	      0.30066603	    -10.14144979	     -2.10990300	     18.07771259	      7.51195155	      0.13110829	     11.06729428	    -12.61488963	      0.00000000	     24.88902902	    -14.66636486	    -20.22506282	     27.32603842	      0.47692934	      2.37401060	    -18.88795163	      0.00000000	     -0.03543379	     -0.24734760	      5.11958130	     -0.06580408	     -0.32897231	      5.43955513	     -0.05821417	     -0.60140096	      5.43955513	     -0.04049727	     -0.60140096	      4.47963363	     -0.03290381	     -0.50439123	      4.15965980	     -0.02024687	     -0.38314143	      3.83968597	     -0.25309999	     -2.79804553	     28.47357529	      0.00000000	      0.00000000	      0.00000000	      0.00000000	      0.00000000	     -6.83995798	     -5.87637740	     10.88042667	     25.69617351	     29.58106237	      0.00000000	      5.00000014	    -11.98540779	      8.45074031	    -54.12151565	     43.97691923	     30.65830290	      0.00000000	      5.00000014
      7.86666667	     -1.35258083	     -0.41705038	    -26.83138647	     -1.74689464	      0.85563973	      0.30052974	    -10.18389144	     -2.05324589	     17.98218655	      7.46979432	      0.13037251	     11.00141639	    -12.75739539	      0.00000000	     24.98396778	    -14.65376252	    -20.06194713	     27.41723769	      0.47852107	      2.35050684	    -18.89652567	      0.00000000	     -0.03602720	     -0.24451676	      5.09764320	     -0.06690612	     -0.32520729	      5.41624590	     -0.05918909	     -0.59451804	      5.41624590	     -0.04117549	     -0.59451804	      4.46043780	     -0.03345486	     -0.49861857	      4.14183510	     -0.02058594	     -0.37875645	      3.82323240	     -0.25733872	     -2.76602244	     28.35156220	      0.00000000	      0.00000000	      0.00000000	      0.00000000	      0.00000000	     -6.83536648	     -5.91960216	     11.43875004	     25.74530264	     26.55253811	      0.00000000	      5.00000014	    -11.99515656	      8.43751207	    -53.78888440	     44.04541571	     27.70196936	      0.00000000	      5.00000014
      7.90000000	     -1.33182217	     -0.33058765	    -26.88527836	     -1.74691293	      0.85565795	      0.30061276	    -10.13278156	     -2.15997858	     17.83373649	      7.51538600	      0.13116823	     11.15061859	    -12.45667781	      0.00000000	     24.88970443	    -14.55873784	    -20.20036717	     27.24317429	      0.47548309	      2.32241008	    -18.89661213	      0.00000000	     -0.03513430	     -0.25587803	      5.10339294	     -0.06524792	     -0.34031778	      5.42235500	     -0.05772215	     -0.62214184	      5.42235500	     -0.04015500	     -0.62214184	      4.46546882	     -0.03262571	     -0.52178648	      4.14650676	     -0.02007574	     -0.39635507	      3.82754471	     -0.25096082	     -2.89454346	     28.38354051	      0.00000000	      0.00000000	      0.00000000	      0.00000000	      0.00000000	     -6.80383480	     -5.84203776	     11.10408708	     25.63731856	     28.11366741	      0.00000000	      5.00000014	    -12.01946613	      8.43324875	    -53.94865230	     44.13162571	     29.08485555	      0.00000000	      5.00000014
